<?xml version="1.0" encoding="UTF-8" standalone="no"?>
<!-- Created with Inkscape (http://www.inkscape.org/) -->

<svg
   width="1920"
   height="1080"
   viewBox="0 0 507.99999 285.75"
   version="1.1"
   id="svg5"
   inkscape:version="1.2.1 (9c6d41e410, 2022-07-14)"
   sodipodi:docname="window-landscape.svg"
   xml:space="preserve"
   inkscape:export-filename="window-overlay.png"
   inkscape:export-xdpi="96"
   inkscape:export-ydpi="96"
   xmlns:inkscape="http://www.inkscape.org/namespaces/inkscape"
   xmlns:sodipodi="http://sodipodi.sourceforge.net/DTD/sodipodi-0.dtd"
   xmlns:xlink="http://www.w3.org/1999/xlink"
   xmlns="http://www.w3.org/2000/svg"
   xmlns:svg="http://www.w3.org/2000/svg"><sodipodi:namedview
     id="namedview7"
     pagecolor="#ffffff"
     bordercolor="#666666"
     borderopacity="1.0"
     inkscape:showpageshadow="2"
     inkscape:pageopacity="0.0"
     inkscape:pagecheckerboard="0"
     inkscape:deskcolor="#d1d1d1"
     inkscape:document-units="mm"
     showgrid="true"
     inkscape:zoom="0.5"
     inkscape:cx="837"
     inkscape:cy="504"
     inkscape:window-width="1920"
     inkscape:window-height="1027"
     inkscape:window-x="-8"
     inkscape:window-y="-8"
     inkscape:window-maximized="1"
     inkscape:current-layer="layer6"><inkscape:grid
       type="xygrid"
       id="grid736"
       originx="254"
       originy="142.875"
       spacingx="1.3229167"
       spacingy="1.3229167"
       color="#0099e5"
       opacity="0.10196078"
       enabled="false" /><inkscape:grid
       type="xygrid"
       id="grid1083"
       originx="254"
       originy="142.875"
       spacingx="264.58333"
       spacingy="264.58333"
       color="#e50000"
       opacity="0.14901961"
       empcolor="#e50000"
       empopacity="0.30196078"
       empspacing="5"
       enabled="false" /></sodipodi:namedview><defs
     id="defs2"><linearGradient
       inkscape:collect="always"
       id="linearGradient3839"><stop
         style="stop-color:#d9d9c3;stop-opacity:1;"
         offset="0"
         id="stop3835" /><stop
         style="stop-color:#ffffe5;stop-opacity:1;"
         offset="0.5"
         id="stop3837" /><stop
         style="stop-color:#d9d9c3;stop-opacity:1;"
         offset="1"
         id="stop3841" /></linearGradient><linearGradient
       inkscape:collect="always"
       id="linearGradient3699"><stop
         style="stop-color:#d9d9c3;stop-opacity:1;"
         offset="0"
         id="stop3695" /><stop
         style="stop-color:#ffffe5;stop-opacity:1;"
         offset="0.5"
         id="stop3697" /><stop
         style="stop-color:#d9d9c3;stop-opacity:1;"
         offset="1"
         id="stop3833" /></linearGradient><linearGradient
       inkscape:collect="always"
       id="linearGradient3693"><stop
         style="stop-color:#d9d9c3;stop-opacity:1;"
         offset="0"
         id="stop3689" /><stop
         style="stop-color:#ffffe5;stop-opacity:1;"
         offset="0.5"
         id="stop3691" /><stop
         style="stop-color:#d9d9c3;stop-opacity:1;"
         offset="1"
         id="stop3825" /></linearGradient><linearGradient
       inkscape:collect="always"
       id="linearGradient3679"><stop
         style="stop-color:#d9d9c3;stop-opacity:1;"
         offset="0"
         id="stop3675" /><stop
         style="stop-color:#ffffe5;stop-opacity:1;"
         offset="0.5"
         id="stop3677" /><stop
         style="stop-color:#d9d9c3;stop-opacity:1;"
         offset="1"
         id="stop3843" /></linearGradient><linearGradient
       inkscape:collect="always"
       xlink:href="#linearGradient3679"
       id="linearGradient3681"
       x1="394.19148"
       y1="139.5677"
       x2="402.19148"
       y2="139.5677"
       gradientUnits="userSpaceOnUse" /><linearGradient
       inkscape:collect="always"
       xlink:href="#linearGradient3839"
       id="linearGradient3683"
       x1="295.50039"
       y1="139.47973"
       x2="303.50039"
       y2="139.47973"
       gradientUnits="userSpaceOnUse" /><linearGradient
       inkscape:collect="always"
       xlink:href="#linearGradient3699"
       id="linearGradient3685"
       x1="197.88282"
       y1="139.57835"
       x2="205.88282"
       y2="139.57835"
       gradientUnits="userSpaceOnUse" /><linearGradient
       inkscape:collect="always"
       xlink:href="#linearGradient3693"
       id="linearGradient3687"
       x1="99.192235"
       y1="139.40558"
       x2="107.19223"
       y2="139.40558"
       gradientUnits="userSpaceOnUse" /></defs><g
     inkscape:groupmode="layer"
     id="layer6"
     inkscape:label="window-overlay"
     sodipodi:insensitive="true"
     style="display:inline"><g
       inkscape:groupmode="layer"
       id="layer5"
       inkscape:label="window+wall"
       style="display:inline"
       sodipodi:insensitive="true"><g
         inkscape:groupmode="layer"
         id="layer3"
         inkscape:label="window-grills+railings"
         style="display:inline"><rect
           style="opacity:1;fill:#bfbfa2;fill-opacity:1;stroke:#000000;stroke-width:0.264583;stroke-linecap:round;stroke-dasharray:none;stroke-opacity:1"
           id="rect1977"
           width="13.219802"
           height="257.96878"
           x="194.48694"
           y="10.58333"
           inkscape:label="grid-2-side" /><rect
           style="opacity:1;fill:#bfbfa2;fill-opacity:1;stroke:#000000;stroke-width:0.264583;stroke-linecap:round;stroke-dasharray:none;stroke-opacity:1"
           id="rect1979"
           width="13.22423"
           height="257.79279"
           x="293.67645"
           y="10.58333"
           inkscape:label="grid-3-side" /><path
           style="fill:#bfbfa2;fill-opacity:1;stroke:#000000;stroke-width:0.264583;stroke-linecap:butt;stroke-linejoin:miter;stroke-dasharray:none;stroke-opacity:1"
           d="m 511.96874,5.5562466 c 0,0 -66.00053,10.0965864 -99.21875,13.2291674 -39.57312,3.731868 -79.3291,5.511729 -119.06249,6.614584 -28.65216,0.79528 -57.33876,0.841944 -85.98959,0 C 170.16668,24.297091 132.62578,22.37149 95.249994,18.785414 62.036916,15.598736 -3.9687566,5.5562466 -3.9687566,5.5562466 l 10e-8,-19.8437496 H 511.96876 Z"
           id="path3939"
           sodipodi:nodetypes="caaaac"
           inkscape:label="railing-top" /><rect
           style="opacity:1;fill:#bfbfa2;fill-opacity:1;stroke:#000000;stroke-width:0.264583;stroke-linecap:round;stroke-dasharray:none;stroke-opacity:1"
           id="rect2709"
           width="13.213556"
           height="270.83719"
           x="95.298302"
           y="4.1491175"
           inkscape:label="grid-1-side" /><rect
           style="display:inline;opacity:1;fill:#bfbfa2;fill-opacity:1;stroke:#000000;stroke-width:0.264583;stroke-linecap:round;stroke-dasharray:none;stroke-opacity:1"
           id="rect2713"
           width="13.216976"
           height="270.83713"
           x="392.87186"
           y="4.1491408"
           inkscape:label="grill-4-side" /><path
           style="fill:#bfbfa2;fill-opacity:1;stroke:#000000;stroke-width:0.264583;stroke-linecap:butt;stroke-linejoin:miter;stroke-dasharray:none;stroke-opacity:1"
           d="m 511.96874,273.57915 c 0,0 -66.00053,-10.09659 -99.21875,-13.22917 -39.57312,-3.73187 -79.3291,-5.51173 -119.06249,-6.61459 -28.65216,-0.79528 -57.33876,-0.84194 -85.98959,0 -37.53123,1.10291 -75.07213,3.02851 -112.447916,6.61459 -33.213078,3.18668 -99.2187506,13.22917 -99.2187506,13.22917 l 10e-8,19.84376 H 511.96876 Z"
           id="path3937"
           sodipodi:nodetypes="caaaac"
           inkscape:label="railing-bottom" /><rect
           style="opacity:1;fill:#d9d9c3;fill-opacity:1;stroke:#000000;stroke-width:0.264583;stroke-linecap:round;stroke-dasharray:none;stroke-opacity:1"
           id="rect1909"
           width="515.9375"
           height="6.6145782"
           x="-3.9687564"
           y="136.26042"
           inkscape:label="grill-horizontal" /><path
           style="fill:#d9d9c3;fill-opacity:1;stroke:#000000;stroke-width:0.264583;stroke-linecap:butt;stroke-linejoin:miter;stroke-dasharray:none;stroke-opacity:1"
           d="m 511.96874,275.16666 c 0,0 -66.00053,-10.09659 -99.21875,-13.22917 -39.57312,-3.73187 -79.3291,-5.51173 -119.06249,-6.61459 -28.65216,-0.79528 -57.33876,-0.84194 -85.98959,0 -37.53123,1.10291 -75.07213,3.02851 -112.447916,6.61459 -33.213078,3.18668 -99.2187506,13.22917 -99.2187506,13.22917 l 10e-8,19.84376 H 511.96876 Z"
           id="path1093"
           sodipodi:nodetypes="caaaac"
           inkscape:label="railing-bottom" /><path
           style="fill:#d9d9c3;fill-opacity:1;stroke:#000000;stroke-width:0.264583;stroke-linecap:butt;stroke-linejoin:miter;stroke-dasharray:none;stroke-opacity:1"
           d="m 511.96874,3.9687465 c 0,0 -66.00053,10.0965855 -99.21875,13.2291665 -39.57312,3.731868 -79.3291,5.511729 -119.06249,6.614584 -28.65216,0.79528 -57.33876,0.841944 -85.98959,0 C 170.16668,22.70959 132.62578,20.783989 95.249994,17.197913 62.036916,14.011235 -3.9687566,3.9687465 -3.9687566,3.9687465 l 10e-8,-19.8437505 H 511.96876 Z"
           id="path1081"
           sodipodi:nodetypes="caaaac"
           inkscape:label="railing-top" /><rect
           style="opacity:1;fill:#d9d9c3;fill-opacity:1;stroke:#000000;stroke-width:0.264583;stroke-linecap:round;stroke-dasharray:none;stroke-opacity:1"
           id="rect2751"
           width="11.669133"
           height="257.99005"
           x="196.04825"
           y="10.58333"
           inkscape:label="grill-2" /><rect
           style="opacity:1;fill:#d9d9c3;fill-opacity:1;stroke:#000000;stroke-width:0.264583;stroke-linecap:round;stroke-dasharray:none;stroke-opacity:1"
           id="rect2753"
           width="11.669245"
           height="257.81412"
           x="293.66577"
           y="10.572663"
           inkscape:label="grill-3" /><rect
           style="opacity:1;fill:#d9d9c3;fill-opacity:1;stroke:#000000;stroke-width:0.264583;stroke-linecap:round;stroke-dasharray:none;stroke-opacity:1"
           id="rect2755"
           width="10.675724"
           height="270.87366"
           x="97.85437"
           y="3.9687464"
           inkscape:label="grill-1" /><rect
           style="display:inline;opacity:1;fill:#d9d9c3;fill-opacity:1;stroke:#000000;stroke-width:0.264583;stroke-linecap:round;stroke-dasharray:none;stroke-opacity:1"
           id="rect2757"
           width="10.675724"
           height="270.87363"
           x="392.85361"
           y="4.1308846"
           inkscape:label="grill-4" /><rect
           style="display:inline;opacity:1;fill:url(#linearGradient3687);fill-opacity:1;stroke:#000000;stroke-width:0.264583;stroke-linecap:round;stroke-dasharray:none;stroke-opacity:1"
           id="rect3596"
           width="7.7241449"
           height="270.92209"
           x="99.330162"
           y="3.9445355"
           inkscape:label="grill-1-detail" /><rect
           style="display:inline;opacity:1;fill:url(#linearGradient3685);fill-opacity:1;stroke:#000000;stroke-width:0.264583;stroke-linecap:round;stroke-dasharray:none;stroke-opacity:1"
           id="rect3598"
           width="7.7306643"
           height="258.05157"
           x="198.01749"
           y="10.552565"
           inkscape:label="grill-2-detail" /><rect
           style="display:inline;opacity:1;fill:url(#linearGradient3683);fill-opacity:1;stroke:#000000;stroke-width:0.264583;stroke-linecap:round;stroke-dasharray:none;stroke-opacity:1"
           id="rect3600"
           width="7.7307549"
           height="257.87564"
           x="295.63501"
           y="10.541908"
           inkscape:label="grill-3-detail" /><rect
           style="display:inline;opacity:1;fill:url(#linearGradient3681);fill-opacity:1;stroke:#000000;stroke-width:0.264583;stroke-linecap:round;stroke-dasharray:none;stroke-opacity:1"
           id="rect3602"
           width="7.7241454"
           height="270.92206"
           x="394.32941"
           y="4.1066737"
           inkscape:label="grill-4-detail" /></g><g
         inkscape:label="wall+windosill"
         inkscape:groupmode="layer"
         id="layer1"
         style="display:inline"><path
           style="fill:#805a40;fill-opacity:1;stroke:#000000;stroke-width:0.264583;stroke-linecap:butt;stroke-linejoin:miter;stroke-dasharray:none;stroke-opacity:1"
           d="m 511.96874,281.78126 c 0,0 -66.00053,-10.09659 -99.21875,-13.22917 -39.57312,-3.73187 -79.3291,-5.51173 -119.06249,-6.61459 -28.65216,-0.79528 -57.33876,-0.84194 -85.98959,0 -37.53123,1.10291 -75.07213,3.02851 -112.447915,6.61459 -33.213078,3.18668 -99.2187506,13.22917 -99.2187506,13.22917 l 1e-7,19.84376 H 511.96876 Z"
           id="path1095"
           sodipodi:nodetypes="caaaac"
           inkscape:label="window sill" /><path
           style="fill:#cccc98;fill-opacity:1;stroke:#000000;stroke-width:0.264583;stroke-linecap:butt;stroke-linejoin:miter;stroke-dasharray:none;stroke-opacity:1"
           d="m 511.96874,-2.645837 c 0,0 -66.00053,10.0965855 -99.21875,13.229167 -39.57312,3.731868 -79.3291,5.511728 -119.06249,6.614584 -28.65216,0.79528 -57.33876,0.841944 -85.98959,0 C 170.16668,16.095007 132.62578,14.169406 95.249994,10.58333 62.036916,7.3966515 -3.9687566,-2.645837 -3.9687566,-2.645837 l 10e-8,-19.84375 H 511.96876 Z"
           id="path1100"
           sodipodi:nodetypes="caaaac"
           inkscape:label="wall-top" /></g></g><g
       inkscape:groupmode="layer"
       id="layer4"
       inkscape:label="curtains"
       style="display:inline"
       sodipodi:insensitive="true"><g
         id="g3540"
         inkscape:label="courtains-left"><path
           style="fill:#f7f7f7;fill-opacity:1;stroke:#000000;stroke-width:0.227182;stroke-linecap:butt;stroke-linejoin:miter;stroke-dasharray:none;stroke-opacity:1"
           d="m 74.183027,302.9485 c 0,0 -0.898034,-11.35495 -1.077781,-17.04908 -0.261181,-8.27384 0.256706,-16.56363 0,-24.83765 -0.243806,-7.85827 -0.944333,-15.68947 -1.461919,-23.53041 -0.460383,-6.97436 -0.578882,-13.99489 -1.46192,-20.91592 -0.674978,-5.29031 -1.358281,-10.64879 -2.923837,-15.68694 -0.716498,-2.30578 -2.923837,-6.53621 -2.923837,-6.53621 v -2.6145 c 0,0 1.148336,-3.43465 1.461919,-5.22898 1.124239,-6.43293 1.071679,-13.06395 1.461918,-19.60868 0.648898,-10.8827 1.218187,-21.77675 1.46192,-32.68112 0.184995,-8.27652 0.307792,-16.56591 0,-24.83766 -0.243874,-6.55397 -1.218046,-13.054693 -1.46192,-19.608661 -0.226793,-6.094971 -0.308549,-12.211145 0,-18.301428 0.488122,-9.634784 1.035359,-19.35273 2.923837,-28.759388 0.993242,-4.947417 3.337627,-9.447076 4.385757,-14.379691 0.817926,-3.849254 1.461921,-11.765204 1.461921,-11.765204 L 42.597907,11.776073 V 302.9485 Z"
           id="path3072"
           sodipodi:nodetypes="caaaaaccaaaaaaaacccc" /><path
           style="fill:#f0f0f0;fill-opacity:1;stroke:#000000;stroke-width:0.242825;stroke-linecap:butt;stroke-linejoin:miter;stroke-dasharray:none;stroke-opacity:1"
           d="m 71.803375,302.9485 c 0,0 -1.025965,-11.35495 -1.231318,-17.04908 -0.298388,-8.27384 0.293275,-16.56363 0,-24.83765 -0.278538,-7.85827 -1.07886,-15.68947 -1.67018,-23.53041 -0.525967,-6.97436 -0.661347,-13.99489 -1.67018,-20.91592 -0.771134,-5.29031 -1.551778,-10.64879 -3.340358,-15.68694 -0.818568,-2.30578 -3.340358,-6.53621 -3.340358,-6.53621 v -2.6145 c 0,0 1.311924,-3.43465 1.670179,-5.22898 1.284395,-6.43293 1.224347,-13.06395 1.670179,-19.60868 0.741338,-10.8827 1.391726,-21.77675 1.67018,-32.68112 0.211349,-8.27652 0.351639,-16.56591 0,-24.83766 -0.278615,-6.55397 -1.391565,-13.054693 -1.67018,-19.608661 -0.259102,-6.094971 -0.352504,-12.211145 0,-18.301428 0.557658,-9.634784 1.182853,-19.35273 3.340358,-28.759388 1.134736,-4.947417 3.783022,-9.454474 5.010538,-14.379691 0.986962,-3.96003 1.86862,-12.100067 1.86862,-12.100067 L 35.78489,10.847914 35.718736,302.9485 Z"
           id="path3015"
           sodipodi:nodetypes="caaaaaccaaaaaaaacccc" /><path
           style="fill:#e8e8e8;fill-opacity:1;stroke:#000000;stroke-width:0.25599;stroke-linecap:butt;stroke-linejoin:miter;stroke-dasharray:none;stroke-opacity:1"
           d="m 63.117559,302.9485 c 0,0 -1.132545,-11.42943 -1.359266,-17.1643 -0.329264,-8.32866 0.323626,-16.67663 0,-25.00551 -0.30752,-7.91438 -1.191011,-15.79601 -1.84373,-23.68943 -0.580659,-7.02198 -0.732614,-14.09949 -1.84373,-21.05728 -0.852488,-5.33827 -1.732224,-10.75302 -3.687459,-15.79295 -0.909412,-2.34416 -3.687458,-6.58039 -3.687458,-6.58039 v -2.63217 c 0,0 1.447051,-3.44784 1.843729,-5.26431 1.410041,-6.45687 1.351471,-13.15052 1.843729,-19.7412 C 57.426499,117.68061 50.719257,72.072871 63.602022,26.516535 64.623661,22.740096 65.5119,14.936402 65.5119,14.936402 L 23.283324,9.8717286 V 302.9485 Z"
           id="path3013"
           sodipodi:nodetypes="caaaaaccacccccc" /><path
           style="fill:#e0e0e0;fill-opacity:1;stroke:#000000;stroke-width:0.265151;stroke-linecap:butt;stroke-linejoin:miter;stroke-dasharray:none;stroke-opacity:1"
           d="m 50.270827,302.94792 c 0,0 -1.203577,-11.53674 -1.444543,-17.32765 -0.349833,-8.40722 0.343845,-16.83601 0,-25.24348 -0.32684,-7.99166 -1.265762,-15.94668 -1.959401,-23.91488 -0.617113,-7.08912 -0.780301,-14.24011 -1.959401,-21.25767 -0.906803,-5.39695 -1.853404,-10.87536 -3.9188,-15.94325 -0.970282,-2.38079 -3.918801,-6.64301 -3.918801,-6.64301 v -2.65722 c 0,0 1.537029,-3.47423 1.9594,-5.31442 1.493266,-6.50588 1.134847,-13.30514 1.959401,-19.92907 1.367547,-10.98598 3.87782,-21.82248 4.95282,-32.84093 C 49.44042,96.013379 46.781604,59.695294 50.785684,23.885217 51.195866,20.2168 52.745087,12.986111 52.745087,12.986111 L 7.9374932,7.8713508 V 302.94792 Z"
           id="path498"
           sodipodi:nodetypes="caaaaaccaaaacccc" /><path
           style="fill:#d9d9d9;fill-opacity:1;stroke:#000000;stroke-width:0.265757;stroke-linecap:butt;stroke-linejoin:miter;stroke-dasharray:none;stroke-opacity:1"
           d="m 38.629161,302.94792 c 0,0 -2.872904,-11.52383 -3.4508,-17.41263 -0.825493,-8.41183 0.513876,-16.92011 0,-25.35671 -0.490455,-8.05209 -1.898045,-16.02234 -2.937289,-24.02214 -0.925579,-7.12483 -1.200578,-14.38139 -2.937288,-21.35303 -1.374456,-5.51745 -2.967153,-11.1282 -5.874574,-16.01475 -1.51527,-2.54674 -5.874574,-6.67282 -5.874574,-6.67282 v -2.66914 c 0,0 2.29001,-3.41316 2.937286,-5.33825 19.555356,-52.09684 5.734777,-111.366157 17.623725,-161.482196 1.567866,-3.81182 2.871145,-11.41576 2.871145,-11.41576 l -52.628456,-4.9927892 -10e-6,296.7302152 z"
           id="path500"
           sodipodi:nodetypes="caaaaacccccccc" /><path
           style="fill:#d1d1d1;fill-opacity:1;stroke:#000000;stroke-width:0.264583;stroke-linecap:butt;stroke-linejoin:miter;stroke-dasharray:none;stroke-opacity:1"
           d="m 23.081823,9.1644032 c 0,0 -1.101749,7.6159558 -1.550867,11.4368118 -4.53602,38.590077 -3.04382,78.080174 -11.5482975,115.993805 -2.0520571,9.14823 -6.9015186,17.47021 -9.43518033,26.49693 -1.85528557,6.60986 -1.31002956,13.93487 -4.19669647,20.16379 -0.9559966,2.06287 -4.1966935,5.377 -4.1966935,5.377 v 2.68852 c 0,0 6.1182799,3.9516 8.39338997,6.72126 3.84740253,4.68373 6.39352023,10.40909 8.39338993,16.13101 2.4100539,6.89552 2.8730339,14.32443 4.1966959,21.50805 1.483377,8.0504 3.494662,16.04077 4.196698,24.19654 0.730137,8.48223 -1.213455,17.11411 0,25.54079 0.868082,6.02828 5.155316,17.52901 5.155316,17.52901 H -10.58334 L -9.78958,4.4979131 Z"
           id="path502"
           sodipodi:nodetypes="caaaaccaaaaacccc" /><path
           style="fill:#cccccc;fill-opacity:1;stroke:#000000;stroke-width:0.264583px;stroke-linecap:butt;stroke-linejoin:miter;stroke-opacity:1"
           d="m 64.333733,191.77779 v 2.6145 c -1.331736,0.86648 -2.540662,0.23035 -3.782753,0 v -2.6145 c 1.492811,0.52703 2.881675,0.81782 3.782753,0 z"
           id="path3249"
           sodipodi:nodetypes="ccccc" /><path
           style="fill:#c4c4c4;fill-opacity:1;stroke:#000000;stroke-width:0.264583px;stroke-linecap:butt;stroke-linejoin:miter;stroke-opacity:1"
           d="m 60.55098,191.77779 v 2.6145 c -2.333968,1.67709 -6.334859,-0.0139 -9.855065,-0.73365 v -2.63217 c 3.707759,0.88466 7.974437,2.60784 9.855065,0.75132 z"
           id="path3251"
           sodipodi:nodetypes="ccccc" /><path
           style="fill:#bdbdbd;fill-opacity:1;stroke:#000000;stroke-width:0.264583px;stroke-linecap:butt;stroke-linejoin:miter;stroke-opacity:1"
           d="m 37.069881,189.96076 c 5.434731,1.24039 11.544502,3.1501 13.626034,1.06571 v 2.63217 c -3.685018,2.36829 -8.879873,-0.047 -13.626034,-1.04066 z"
           id="path3253"
           sodipodi:nodetypes="ccccc" /><path
           style="fill:#b5b5b5;fill-opacity:1;stroke:#000000;stroke-width:0.264583px;stroke-linecap:butt;stroke-linejoin:miter;stroke-opacity:1"
           d="m 17.554636,189.4467 c 8.825717,1.71815 17.965945,3.64594 19.515245,0.51406 v 2.65722 c -3.070165,3.81142 -12.464998,0.29673 -19.515245,-0.50214 z"
           id="path3255"
           sodipodi:nodetypes="ccccc" /><path
           style="fill:#adadad;fill-opacity:1;stroke:#000000;stroke-width:0.264583px;stroke-linecap:butt;stroke-linejoin:miter;stroke-opacity:1"
           d="m 17.554636,189.4467 c -2.759109,2.41687 -14.588055,0.56209 -25.4005475,-0.81396 l -2e-7,2.68852 c 9.3300528,0.9036 22.4855027,4.63784 25.4005477,0.79458 z"
           id="path3257"
           sodipodi:nodetypes="ccccc" /><path
           style="fill:#a6a6a6;fill-opacity:1;stroke:#000000;stroke-width:0.264583px;stroke-linecap:butt;stroke-linejoin:miter;stroke-opacity:1"
           d="m -12.898437,188.11875 c 2.210605,0.47898 3.7445552,0.56252 5.0525255,0.51399 l -2e-7,2.68852 c -1.5036372,0.8873 -3.3144933,0.69933 -5.0525263,0.76624 z"
           id="path3259"
           sodipodi:nodetypes="ccccc" /></g><g
         id="g3566"
         inkscape:label="courtains-right"
         transform="matrix(-1,0,0,1,507.09137,0)"><path
           style="fill:#f7f7f7;fill-opacity:1;stroke:#000000;stroke-width:0.227182;stroke-linecap:butt;stroke-linejoin:miter;stroke-dasharray:none;stroke-opacity:1"
           d="m 74.183027,302.9485 c 0,0 -0.898034,-11.35495 -1.077781,-17.04908 -0.261181,-8.27384 0.256706,-16.56363 0,-24.83765 -0.243806,-7.85827 -0.944333,-15.68947 -1.461919,-23.53041 -0.460383,-6.97436 -0.578882,-13.99489 -1.46192,-20.91592 -0.674978,-5.29031 -1.358281,-10.64879 -2.923837,-15.68694 -0.716498,-2.30578 -2.923837,-6.53621 -2.923837,-6.53621 v -2.6145 c 0,0 1.148336,-3.43465 1.461919,-5.22898 1.124239,-6.43293 1.071679,-13.06395 1.461918,-19.60868 0.648898,-10.8827 1.218187,-21.77675 1.46192,-32.68112 0.184995,-8.27652 0.307792,-16.56591 0,-24.83766 -0.243874,-6.55397 -1.218046,-13.054693 -1.46192,-19.608661 -0.226793,-6.094971 -0.308549,-12.211145 0,-18.301428 0.488122,-9.634784 1.035359,-19.35273 2.923837,-28.759388 0.993242,-4.947417 3.337627,-9.447076 4.385757,-14.379691 0.817926,-3.849254 1.461921,-11.765204 1.461921,-11.765204 L 42.597907,11.776073 V 302.9485 Z"
           id="path3542"
           sodipodi:nodetypes="caaaaaccaaaaaaaacccc" /><path
           style="fill:#f0f0f0;fill-opacity:1;stroke:#000000;stroke-width:0.242825;stroke-linecap:butt;stroke-linejoin:miter;stroke-dasharray:none;stroke-opacity:1"
           d="m 71.803375,302.9485 c 0,0 -1.025965,-11.35495 -1.231318,-17.04908 -0.298388,-8.27384 0.293275,-16.56363 0,-24.83765 -0.278538,-7.85827 -1.07886,-15.68947 -1.67018,-23.53041 -0.525967,-6.97436 -0.661347,-13.99489 -1.67018,-20.91592 -0.771134,-5.29031 -1.551778,-10.64879 -3.340358,-15.68694 -0.818568,-2.30578 -3.340358,-6.53621 -3.340358,-6.53621 v -2.6145 c 0,0 1.311924,-3.43465 1.670179,-5.22898 1.284395,-6.43293 1.224347,-13.06395 1.670179,-19.60868 0.741338,-10.8827 1.391726,-21.77675 1.67018,-32.68112 0.211349,-8.27652 0.351639,-16.56591 0,-24.83766 -0.278615,-6.55397 -1.391565,-13.054693 -1.67018,-19.608661 -0.259102,-6.094971 -0.352504,-12.211145 0,-18.301428 0.557658,-9.634784 1.182853,-19.35273 3.340358,-28.759388 1.134736,-4.947417 3.783022,-9.454474 5.010538,-14.379691 0.986962,-3.96003 1.86862,-12.100067 1.86862,-12.100067 L 35.78489,10.847914 35.718736,302.9485 Z"
           id="path3544"
           sodipodi:nodetypes="caaaaaccaaaaaaaacccc" /><path
           style="fill:#e8e8e8;fill-opacity:1;stroke:#000000;stroke-width:0.25599;stroke-linecap:butt;stroke-linejoin:miter;stroke-dasharray:none;stroke-opacity:1"
           d="m 63.117559,302.9485 c 0,0 -1.132545,-11.42943 -1.359266,-17.1643 -0.329264,-8.32866 0.323626,-16.67663 0,-25.00551 -0.30752,-7.91438 -1.191011,-15.79601 -1.84373,-23.68943 -0.580659,-7.02198 -0.732614,-14.09949 -1.84373,-21.05728 -0.852488,-5.33827 -1.732224,-10.75302 -3.687459,-15.79295 -0.909412,-2.34416 -3.687458,-6.58039 -3.687458,-6.58039 v -2.63217 c 0,0 1.468666,-3.44325 1.843729,-5.26431 C 63.273384,133.64623 57.422071,79.366237 63.602022,26.516535 64.056396,22.63082 65.5119,14.936402 65.5119,14.936402 L 23.283324,9.8717286 V 302.9485 Z"
           id="path3546"
           sodipodi:nodetypes="caaaaaccaacccc" /><path
           style="fill:#e0e0e0;fill-opacity:1;stroke:#000000;stroke-width:0.265151;stroke-linecap:butt;stroke-linejoin:miter;stroke-dasharray:none;stroke-opacity:1"
           d="m 50.270827,302.94792 c 0,0 -1.203577,-11.53674 -1.444543,-17.32765 -0.349833,-8.40722 0.343845,-16.83601 0,-25.24348 -0.32684,-7.99166 -1.265762,-15.94668 -1.959401,-23.91488 -0.617113,-7.08912 -0.780301,-14.24011 -1.959401,-21.25767 -0.906803,-5.39695 -1.853404,-10.87536 -3.9188,-15.94325 -0.970282,-2.38079 -3.918801,-6.64301 -3.918801,-6.64301 v -2.65722 c 0,0 1.372675,-3.51986 1.9594,-5.31442 1.582838,-4.84129 3.366835,-9.66646 4.204465,-14.69059 8.017883,-48.09141 1.968795,-97.636053 7.551938,-146.070533 0.422702,-3.666995 1.959403,-10.899106 1.959403,-10.899106 L 7.9374932,7.8713508 V 302.94792 Z"
           id="path3548"
           sodipodi:nodetypes="caaaaaccaaacccc" /><path
           style="fill:#d9d9d9;fill-opacity:1;stroke:#000000;stroke-width:0.265757;stroke-linecap:butt;stroke-linejoin:miter;stroke-dasharray:none;stroke-opacity:1"
           d="m 38.629161,302.94792 c 0,0 -2.872904,-11.52383 -3.4508,-17.41263 -0.825493,-8.41183 0.513876,-16.92011 0,-25.35671 -0.490455,-8.05209 -1.898045,-16.02234 -2.937289,-24.02214 -0.925579,-7.12483 -1.200578,-14.38139 -2.937288,-21.35303 -1.374456,-5.51745 -2.967153,-11.1282 -5.874574,-16.01475 -1.51527,-2.54674 -5.874574,-6.67282 -5.874574,-6.67282 v -2.66914 c 0,0 2.29001,-3.41316 2.937286,-5.33825 11.648302,-53.07547 8.060256,-108.186422 17.623725,-161.482196 0.693016,-3.862075 2.871145,-11.41576 2.871145,-11.41576 l -52.628456,-4.9927892 -10e-6,296.7302152 z"
           id="path3550"
           sodipodi:nodetypes="caaaaacccacccc" /><path
           style="fill:#d1d1d1;fill-opacity:1;stroke:#000000;stroke-width:0.264583;stroke-linecap:butt;stroke-linejoin:miter;stroke-dasharray:none;stroke-opacity:1"
           d="m 23.081823,9.1644032 c 0,0 -0.840244,11.3872698 -1.550867,17.0494718 -6.601865,52.60326 -4.005776,108.438035 -25.1801743,157.041865 -0.9080793,2.08441 -4.1966935,5.377 -4.1966935,5.377 v 2.68852 c 0,0 6.1182799,3.9516 8.39338997,6.72126 3.84740253,4.68373 6.39352023,10.40909 8.39338993,16.13101 2.4100539,6.89552 2.8730339,14.32443 4.1966959,21.50805 1.483377,8.0504 3.494662,16.04077 4.196698,24.19654 0.730137,8.48223 -1.213455,17.11411 0,25.54079 0.868082,6.02828 5.155316,17.52901 5.155316,17.52901 H -10.58334 L -9.78958,4.4979131 Z"
           id="path3552"
           sodipodi:nodetypes="caaccaaaaacccc" /><path
           style="fill:#cccccc;fill-opacity:1;stroke:#000000;stroke-width:0.264583px;stroke-linecap:butt;stroke-linejoin:miter;stroke-opacity:1"
           d="m 64.333733,191.77779 v 2.6145 c -1.331736,0.86648 -2.540662,0.23035 -3.782753,0 v -2.6145 c 1.492811,0.52703 2.881675,0.81782 3.782753,0 z"
           id="path3554"
           sodipodi:nodetypes="ccccc" /><path
           style="fill:#c4c4c4;fill-opacity:1;stroke:#000000;stroke-width:0.264583px;stroke-linecap:butt;stroke-linejoin:miter;stroke-opacity:1"
           d="m 60.55098,191.77779 v 2.6145 c -2.333968,1.67709 -6.334859,-0.0139 -9.855065,-0.73365 v -2.63217 c 3.707759,0.88466 7.974437,2.60784 9.855065,0.75132 z"
           id="path3556"
           sodipodi:nodetypes="ccccc" /><path
           style="fill:#bdbdbd;fill-opacity:1;stroke:#000000;stroke-width:0.264583px;stroke-linecap:butt;stroke-linejoin:miter;stroke-opacity:1"
           d="m 37.069881,189.96076 c 5.434731,1.24039 11.544502,3.1501 13.626034,1.06571 v 2.63217 c -3.685018,2.36829 -8.879873,-0.047 -13.626034,-1.04066 z"
           id="path3558"
           sodipodi:nodetypes="ccccc" /><path
           style="fill:#b5b5b5;fill-opacity:1;stroke:#000000;stroke-width:0.264583px;stroke-linecap:butt;stroke-linejoin:miter;stroke-opacity:1"
           d="m 17.554636,189.4467 c 8.825717,1.71815 17.965945,3.64594 19.515245,0.51406 v 2.65722 c -3.070165,3.81142 -12.464998,0.29673 -19.515245,-0.50214 z"
           id="path3560"
           sodipodi:nodetypes="ccccc" /><path
           style="fill:#adadad;fill-opacity:1;stroke:#000000;stroke-width:0.264583px;stroke-linecap:butt;stroke-linejoin:miter;stroke-opacity:1"
           d="m 17.554636,189.4467 c -2.759109,2.41687 -14.588055,0.56209 -25.4005475,-0.81396 l -2e-7,2.68852 c 9.3300528,0.9036 22.4855027,4.63784 25.4005477,0.79458 z"
           id="path3562"
           sodipodi:nodetypes="ccccc" /><path
           style="fill:#a6a6a6;fill-opacity:1;stroke:#000000;stroke-width:0.264583px;stroke-linecap:butt;stroke-linejoin:miter;stroke-opacity:1"
           d="m -12.898437,188.11875 c 2.210605,0.47898 3.7445552,0.56252 5.0525255,0.51399 l -2e-7,2.68852 c -1.5036372,0.8873 -3.3144933,0.69933 -5.0525263,0.76624 z"
           id="path3564"
           sodipodi:nodetypes="ccccc" /></g></g></g></svg>
